<?xml version="1.0" encoding="UTF-8"?>
<!DOCTYPE svg PUBLIC "-//W3C//DTD SVG 1.1//EN" "http://www.w3.org/Graphics/SVG/1.1/DTD/svg11.dtd">
<svg xmlns="http://www.w3.org/2000/svg" version="1.1" width="192px" height="192px" style="shape-rendering:geometricPrecision; text-rendering:geometricPrecision; image-rendering:optimizeQuality; fill-rule:evenodd; clip-rule:evenodd" xmlns:xlink="http://www.w3.org/1999/xlink">
<g><path style="opacity:1" fill="#fdfefe" d="M -0.5,-0.5 C 63.5,-0.5 127.5,-0.5 191.5,-0.5C 191.5,63.5 191.5,127.5 191.5,191.5C 127.5,191.5 63.5,191.5 -0.5,191.5C -0.5,127.5 -0.5,63.5 -0.5,-0.5 Z"/></g>
<g><path style="opacity:1" fill="#94ccda" d="M 146.5,28.5 C 144.409,28.3184 142.409,28.6518 140.5,29.5C 133.233,24.0484 125.233,20.215 116.5,18C 102.249,14.9086 87.916,13.4086 73.5,13.5C 100.241,6.60049 124.574,11.6005 146.5,28.5 Z"/></g>
<g><path style="opacity:1" fill="#69bbc4" d="M 57.5,26.5 C 60.0736,29.0269 62.0736,32.0269 63.5,35.5C 64.3279,36.4147 65.3279,37.0814 66.5,37.5C 70.5332,36.0999 74.5332,34.5999 78.5,33C 80.8333,32.3333 83.1667,32.3333 85.5,33C 77.9421,34.2956 70.9421,36.9623 64.5,41C 68.1221,44.4337 72.2888,45.6003 77,44.5C 77.9148,45.796 79.5814,46.4627 82,46.5C 84.0342,46.6464 85.7009,45.9797 87,44.5C 87.3519,46.2475 87.8519,47.9142 88.5,49.5C 78.0302,45.3256 69.3635,47.659 62.5,56.5C 61.596,57.209 61.2627,58.209 61.5,59.5C 60.7171,61.3432 60.0505,63.3432 59.5,65.5C 59.1667,65.8333 58.8333,66.1667 58.5,66.5C 57.7492,65.624 57.2492,64.624 57,63.5C 56.3632,65.3031 55.1965,66.6364 53.5,67.5C 52.8307,69.3692 52.4974,71.0359 52.5,72.5C 49.5535,70.887 47.2202,68.5537 45.5,65.5C 43.9291,66.3094 42.2624,66.6427 40.5,66.5C 40.8146,64.7741 40.9813,63.1075 41,61.5C 39.3883,64.0789 37.8883,64.0789 36.5,61.5C 37.8333,59.5 39.1667,57.5 40.5,55.5C 39.3271,53.4827 37.8271,52.816 36,53.5C 34.4868,50.9761 33.8201,48.3094 34,45.5C 40.6743,37.5993 48.5076,31.266 57.5,26.5 Z"/></g>
<g><path style="opacity:1" fill="#62b3bd" d="M 57.5,26.5 C 48.5076,31.266 40.6743,37.5993 34,45.5C 33.8201,48.3094 34.4868,50.9761 36,53.5C 37.8271,52.816 39.3271,53.4827 40.5,55.5C 39.1667,57.5 37.8333,59.5 36.5,61.5C 37.8883,64.0789 39.3883,64.0789 41,61.5C 40.9813,63.1075 40.8146,64.7741 40.5,66.5C 42.2624,66.6427 43.9291,66.3094 45.5,65.5C 47.2202,68.5537 49.5535,70.887 52.5,72.5C 52.2648,73.0967 51.7648,73.4301 51,73.5C 47.0521,71.7185 43.2188,69.7185 39.5,67.5C 36.5865,72.0709 34.7532,77.0709 34,82.5C 32.8119,88.7782 32.3119,95.1115 32.5,101.5C 32.8333,102.833 33.1667,104.167 33.5,105.5C 34.3388,108.835 34.8388,112.168 35,115.5C 34.1553,113.389 33.322,111.389 32.5,109.5C 29.991,94.9693 31.6577,80.9693 37.5,67.5C 36.9017,66.2054 36.4017,64.8721 36,63.5C 35.2753,64.0585 34.4419,64.3918 33.5,64.5C 29.9258,64.0586 26.9258,62.8919 24.5,61C 20.6736,69.4803 17.8403,78.3137 16,87.5C 15.9966,79.6834 17.4966,72.1834 20.5,65C 19.8677,61.9145 19.8677,58.7479 20.5,55.5C 22.5049,54.9612 24.5049,54.2945 26.5,53.5C 30.4292,47.4014 34.9292,41.7348 40,36.5C 40.003,33.251 41.1697,30.5844 43.5,28.5C 45.0443,28.2969 46.3777,27.6302 47.5,26.5C 48.086,26.7093 48.586,27.0426 49,27.5C 55.7065,24.5697 62.5398,21.7364 69.5,19C 75.2736,16.9417 80.9403,16.1084 86.5,16.5C 76.3221,18.458 66.6554,21.7914 57.5,26.5 Z"/></g>
<g><path style="opacity:1" fill="#7cc1ca" d="M 43.5,28.5 C 41.1697,30.5844 40.003,33.251 40,36.5C 34.9292,41.7348 30.4292,47.4014 26.5,53.5C 24.5049,54.2945 22.5049,54.9612 20.5,55.5C 25.6303,44.3674 33.2969,35.3674 43.5,28.5 Z"/></g>
<g><path style="opacity:1" fill="#84b528" d="M 88.5,49.5 C 90.4516,50.7847 92.1182,52.4514 93.5,54.5C 100.638,47.9345 108.971,45.7678 118.5,48C 120.881,48.2233 122.547,49.39 123.5,51.5C 123.672,52.4916 123.338,53.1583 122.5,53.5C 122.5,52.8333 122.167,52.5 121.5,52.5C 120.942,51.2101 119.942,50.3768 118.5,50C 109.576,48.6302 102.909,51.7968 98.5,59.5C 96.0316,62.1577 93.3649,64.4911 90.5,66.5C 90.7592,61.5896 89.0925,57.5896 85.5,54.5C 84.9423,53.2101 83.9423,52.3768 82.5,52C 76.9031,50.9091 71.5698,51.5758 66.5,54C 64.8588,55.129 63.8588,56.629 63.5,58.5C 63.1667,58.5 62.8333,58.5 62.5,58.5C 62.5,57.8333 62.5,57.1667 62.5,56.5C 69.3635,47.659 78.0302,45.3256 88.5,49.5 Z"/></g>
<g><path style="opacity:1" fill="#83c4d0" d="M 146.5,28.5 C 161.734,39.3408 171.734,53.6742 176.5,71.5C 176.749,74.0021 177.083,76.5021 177.5,79C 177.167,80.1667 176.833,81.3333 176.5,82.5C 175.914,82.2907 175.414,81.9574 175,81.5C 174.5,88.4921 174.334,95.4921 174.5,102.5C 173.672,96.8343 173.006,91.0009 172.5,85C 172.322,82.6998 171.322,80.8664 169.5,79.5C 167.075,81.2718 164.408,82.6051 161.5,83.5C 162.629,85.5294 162.129,85.8627 160,84.5C 159.667,89.8333 159.333,95.1667 159,100.5C 158.693,95.1181 158.026,89.7848 157,84.5C 153.851,84.6491 150.684,84.6491 147.5,84.5C 145.617,82.2366 144.284,79.5699 143.5,76.5C 143.709,75.914 144.043,75.414 144.5,75C 143.095,73.7308 141.429,73.2308 139.5,73.5C 139.715,75.1788 139.048,76.1788 137.5,76.5C 138.549,70.7865 136.883,66.1198 132.5,62.5C 132.271,60.567 131.438,58.9003 130,57.5C 129.667,57.8333 129.333,58.1667 129,58.5C 127.236,56.6107 125.736,54.6107 124.5,52.5C 124.5,51.8333 124.167,51.5 123.5,51.5C 122.547,49.39 120.881,48.2233 118.5,48C 108.971,45.7678 100.638,47.9345 93.5,54.5C 92.1182,52.4514 90.4516,50.7847 88.5,49.5C 87.8519,47.9142 87.3519,46.2475 87,44.5C 85.7009,45.9797 84.0342,46.6464 82,46.5C 79.5814,46.4627 77.9148,45.796 77,44.5C 72.2888,45.6003 68.1221,44.4337 64.5,41C 70.9421,36.9623 77.9421,34.2956 85.5,33C 83.1667,32.3333 80.8333,32.3333 78.5,33C 74.5332,34.5999 70.5332,36.0999 66.5,37.5C 65.3279,37.0814 64.3279,36.4147 63.5,35.5C 62.0736,32.0269 60.0736,29.0269 57.5,26.5C 66.6554,21.7914 76.3221,18.458 86.5,16.5C 80.9403,16.1084 75.2736,16.9417 69.5,19C 62.5398,21.7364 55.7065,24.5697 49,27.5C 48.586,27.0426 48.086,26.7093 47.5,26.5C 46.3777,27.6302 45.0443,28.2969 43.5,28.5C 51.9432,20.541 61.9432,15.541 73.5,13.5C 87.916,13.4086 102.249,14.9086 116.5,18C 125.233,20.215 133.233,24.0484 140.5,29.5C 142.409,28.6518 144.409,28.3184 146.5,28.5 Z"/></g>
<g><path style="opacity:1" fill="#8fc9d8" d="M 93.5,18.5 C 107.849,16.4943 121.182,19.4943 133.5,27.5C 134.497,29.8109 134.997,32.1443 135,34.5C 131.594,33.2933 128.094,32.7933 124.5,33C 129.22,35.4455 133.72,38.2789 138,41.5C 145.188,38.1423 148.188,40.4756 147,48.5C 146.333,49.8333 145.667,49.8333 145,48.5C 143.343,52.3609 141.843,52.3609 140.5,48.5C 125.484,35.999 108.151,29.6657 88.5,29.5C 89.5959,23.4388 93.2626,21.1054 99.5,22.5C 99.5,21.5 99.5,20.5 99.5,19.5C 97.3792,19.6747 95.3792,19.3414 93.5,18.5 Z"/></g>
<g><path style="opacity:1" fill="#407b7c" d="M 121.5,52.5 C 112.333,49.9176 104.666,52.251 98.5,59.5C 102.909,51.7968 109.576,48.6302 118.5,50C 119.942,50.3768 120.942,51.2101 121.5,52.5 Z"/></g>
<g><path style="opacity:1" fill="#3a7a7d" d="M 85.5,54.5 C 82.5701,53.701 79.5701,53.3677 76.5,53.5C 71.2657,53.0195 66.9323,54.6861 63.5,58.5C 63.8588,56.629 64.8588,55.129 66.5,54C 71.5698,51.5758 76.9031,50.9091 82.5,52C 83.9423,52.3768 84.9423,53.2101 85.5,54.5 Z"/></g>
<g><path style="opacity:1" fill="#80b46d" d="M 123.5,51.5 C 124.167,51.5 124.5,51.8333 124.5,52.5C 124.68,56.2856 123.68,59.619 121.5,62.5C 121.963,59.5176 122.296,56.5176 122.5,53.5C 123.338,53.1583 123.672,52.4916 123.5,51.5 Z"/></g>
<g><path style="opacity:1" fill="#85b62c" d="M 132.5,62.5 C 136.883,66.1198 138.549,70.7865 137.5,76.5C 135.412,78.3356 134.079,80.6689 133.5,83.5C 134.387,79.2868 134.387,74.9535 133.5,70.5C 131.165,67.8352 128.165,66.5018 124.5,66.5C 123.209,64.1695 123.542,62.0028 125.5,60C 127.963,60.2204 130.296,61.0538 132.5,62.5 Z"/></g>
<g><path style="opacity:1" fill="#478587" d="M 98.5,59.5 C 97.5294,61.4832 96.5294,63.4832 95.5,65.5C 94.1733,66.8001 92.84,68.1335 91.5,69.5C 90.6143,68.675 90.281,67.675 90.5,66.5C 93.3649,64.4911 96.0316,62.1577 98.5,59.5 Z"/></g>
<g><path style="opacity:1" fill="#81c5cd" d="M 121.5,52.5 C 122.167,52.5 122.5,52.8333 122.5,53.5C 122.296,56.5176 121.963,59.5176 121.5,62.5C 123.68,59.619 124.68,56.2856 124.5,52.5C 125.736,54.6107 127.236,56.6107 129,58.5C 129.333,58.1667 129.667,57.8333 130,57.5C 131.438,58.9003 132.271,60.567 132.5,62.5C 130.296,61.0538 127.963,60.2204 125.5,60C 123.542,62.0028 123.209,64.1695 124.5,66.5C 127.09,68.3236 130.09,69.657 133.5,70.5C 129.672,71.8345 126.006,73.0012 122.5,74C 124.286,75.293 125.953,75.793 127.5,75.5C 126.176,76.9347 124.51,77.9347 122.5,78.5C 123.154,80.1151 123.654,81.7818 124,83.5C 124.333,82.8333 124.667,82.1667 125,81.5C 125.928,83.3073 127.094,84.974 128.5,86.5C 127.092,87.2432 125.759,88.0766 124.5,89C 126.656,90.6942 126.489,92.5275 124,94.5C 119.961,92.9566 115.961,91.2899 112,89.5C 111.667,90.5 111.333,91.5 111,92.5C 109.968,90.9733 108.801,89.64 107.5,88.5C 107.936,84.1284 109.603,80.295 112.5,77C 112.333,76.5 112.167,76 112,75.5C 110.264,77.0632 108.764,78.7299 107.5,80.5C 103.562,76.1453 99.5624,71.1453 95.5,65.5C 96.5294,63.4832 97.5294,61.4832 98.5,59.5C 104.666,52.251 112.333,49.9176 121.5,52.5 Z"/></g>
<g><path style="opacity:1" fill="#3c7679" d="M 124.5,66.5 C 128.165,66.5018 131.165,67.8352 133.5,70.5C 130.09,69.657 127.09,68.3236 124.5,66.5 Z"/></g>
<g><path style="opacity:1" fill="#72b073" d="M 62.5,56.5 C 62.5,57.1667 62.5,57.8333 62.5,58.5C 62.3359,61.1873 62.5026,63.854 63,66.5C 64.5289,69.2784 65.8623,71.945 67,74.5C 62.3631,70.5543 60.5298,65.5543 61.5,59.5C 61.2627,58.209 61.596,57.209 62.5,56.5 Z"/></g>
<g><path style="opacity:1" fill="#82ba8b" d="M 121.5,62.5 C 120.538,65.7568 119.038,68.7568 117,71.5C 116.282,72.4506 115.449,72.6172 114.5,72C 116.976,68.8546 119.31,65.688 121.5,62.5 Z"/></g>
<g><path style="opacity:1" fill="#72c0c0" d="M 20.5,55.5 C 19.8677,58.7479 19.8677,61.9145 20.5,65C 17.4966,72.1834 15.9966,79.6834 16,87.5C 17.8403,78.3137 20.6736,69.4803 24.5,61C 26.9258,62.8919 29.9258,64.0586 33.5,64.5C 34.4419,64.3918 35.2753,64.0585 36,63.5C 36.4017,64.8721 36.9017,66.2054 37.5,67.5C 31.6577,80.9693 29.991,94.9693 32.5,109.5C 31.7784,109.082 31.2784,108.416 31,107.5C 30.2189,108.729 29.7189,110.062 29.5,111.5C 32.2003,121.101 36.7003,129.767 43,137.5C 43.6667,138.5 43.6667,139.5 43,140.5C 40.8773,139.354 38.3773,139.354 35.5,140.5C 33.9707,140.471 32.804,139.804 32,138.5C 30.296,132.458 28.796,126.458 27.5,120.5C 25.857,120.52 24.5237,119.853 23.5,118.5C 22.9276,116.922 22.5943,115.422 22.5,114C 21.2161,113.316 20.0495,113.483 19,114.5C 16.3451,111.703 15.1784,108.369 15.5,104.5C 14.1667,104.5 12.8333,104.5 11.5,104.5C 10.1835,94.105 10.6835,83.7717 13,73.5C 14.9026,67.1862 17.4026,61.1862 20.5,55.5 Z"/></g>
<g><path style="opacity:1" fill="#82b433" d="M 58.5,74.5 C 62.2502,74.5038 62.9169,75.5038 60.5,77.5C 58.1475,78.3403 56.1475,79.6736 54.5,81.5C 53.8826,81.6107 53.3826,81.944 53,82.5C 52.5045,84.4727 52.3379,86.4727 52.5,88.5C 52.1667,88.5 51.8333,88.5 51.5,88.5C 50.4891,86.5976 50.3224,84.5976 51,82.5C 53.0282,79.3078 55.5282,76.6411 58.5,74.5 Z"/></g>
<g><path style="opacity:1" fill="#7ac3c7" d="M 76.5,53.5 C 79.5701,53.3677 82.5701,53.701 85.5,54.5C 89.0925,57.5896 90.7592,61.5896 90.5,66.5C 90.281,67.675 90.6143,68.675 91.5,69.5C 92.84,68.1335 94.1733,66.8001 95.5,65.5C 99.5624,71.1453 103.562,76.1453 107.5,80.5C 105.343,83.4706 103.176,86.4706 101,89.5C 98.5106,92.8324 95.3439,95.1657 91.5,96.5C 86.5474,93.2158 82.214,89.2158 78.5,84.5C 82.3087,80.1699 82.3087,75.8366 78.5,71.5C 79.0253,70.8076 79.6919,70.3076 80.5,70C 79.7108,67.733 79.0441,65.3997 78.5,63C 78.0946,62.0546 77.428,61.3879 76.5,61C 79.7423,60.7167 80.0756,59.8834 77.5,58.5C 76.5481,56.9547 76.2148,55.288 76.5,53.5 Z"/></g>
<g><path style="opacity:1" fill="#e2f0f1" d="M 89.5,79.5 C 92.5959,78.9066 94.9292,79.9066 96.5,82.5C 94.6665,81.5715 92.4998,81.5715 90,82.5C 89.0477,85.6435 89.8811,88.1435 92.5,90C 88.8715,90.2145 86.8715,88.3812 86.5,84.5C 87.0924,82.5775 88.0924,80.9108 89.5,79.5 Z"/></g>
<g><path style="opacity:1" fill="#f9fcfc" d="M 107.5,88.5 C 106.778,88.9175 106.278,89.5842 106,90.5C 105.666,97.1806 105.166,103.847 104.5,110.5C 104.864,114.925 106.197,118.925 108.5,122.5C 109.183,126.02 111.183,128.52 114.5,130C 110.886,129.304 107.219,128.47 103.5,127.5C 100.024,126.357 96.3575,126.19 92.5,127C 86.9228,128.976 81.2562,130.309 75.5,131C 81.0546,128.28 85.0546,124.113 87.5,118.5C 88.8137,113.348 88.8137,108.348 87.5,103.5C 85.3145,95.6459 80.9811,89.1459 74.5,84C 75.7932,83.51 77.1266,83.3433 78.5,83.5C 78.5,83.8333 78.5,84.1667 78.5,84.5C 82.214,89.2158 86.5474,93.2158 91.5,96.5C 95.3439,95.1657 98.5106,92.8324 101,89.5C 103.176,86.4706 105.343,83.4706 107.5,80.5C 108.764,78.7299 110.264,77.0632 112,75.5C 112.167,76 112.333,76.5 112.5,77C 109.603,80.295 107.936,84.1284 107.5,88.5 Z"/></g>
<g><path style="opacity:1" fill="#78ae55" d="M 51.5,88.5 C 51.8333,88.5 52.1667,88.5 52.5,88.5C 55.1379,91.4744 57.8046,94.4744 60.5,97.5C 56.5216,95.5216 53.5216,92.5216 51.5,88.5 Z"/></g>
<g><path style="opacity:1" fill="#69bcbd" d="M 76.5,53.5 C 76.2148,55.288 76.5481,56.9547 77.5,58.5C 80.0756,59.8834 79.7423,60.7167 76.5,61C 77.428,61.3879 78.0946,62.0546 78.5,63C 79.0441,65.3997 79.7108,67.733 80.5,70C 79.6919,70.3076 79.0253,70.8076 78.5,71.5C 82.3087,75.8366 82.3087,80.1699 78.5,84.5C 78.5,84.1667 78.5,83.8333 78.5,83.5C 79.1589,81.8621 79.8256,80.1955 80.5,78.5C 79.6798,76.8888 78.3464,76.2222 76.5,76.5C 76.0341,82.4543 73.8675,83.121 70,78.5C 69.5774,79.9561 68.7441,80.4561 67.5,80C 65.9831,77.7955 64.6498,75.4622 63.5,73C 62.6667,72.8333 61.8333,72.6667 61,72.5C 59.6244,72.6842 58.7911,73.3509 58.5,74.5C 55.5282,76.6411 53.0282,79.3078 51,82.5C 50.3224,84.5976 50.4891,86.5976 51.5,88.5C 53.5216,92.5216 56.5216,95.5216 60.5,97.5C 61.5109,99.4024 61.6776,101.402 61,103.5C 59.6667,102.833 58.6667,101.833 58,100.5C 54.5349,100.939 54.7016,102.105 58.5,104C 56.5355,104.624 54.8689,104.124 53.5,102.5C 52.914,102.709 52.414,103.043 52,103.5C 45.5919,102.387 39.0919,101.72 32.5,101.5C 32.3119,95.1115 32.8119,88.7782 34,82.5C 34.7532,77.0709 36.5865,72.0709 39.5,67.5C 43.2188,69.7185 47.0521,71.7185 51,73.5C 51.7648,73.4301 52.2648,73.0967 52.5,72.5C 52.4974,71.0359 52.8307,69.3692 53.5,67.5C 55.1965,66.6364 56.3632,65.3031 57,63.5C 57.2492,64.624 57.7492,65.624 58.5,66.5C 58.8333,66.1667 59.1667,65.8333 59.5,65.5C 60.0505,63.3432 60.7171,61.3432 61.5,59.5C 60.5298,65.5543 62.3631,70.5543 67,74.5C 65.8623,71.945 64.5289,69.2784 63,66.5C 62.5026,63.854 62.3359,61.1873 62.5,58.5C 62.8333,58.5 63.1667,58.5 63.5,58.5C 66.9323,54.6861 71.2657,53.0195 76.5,53.5 Z"/></g>
<g><path style="opacity:1" fill="#3d7c7d" d="M 60.5,77.5 C 62.3786,77.3932 62.7119,77.8932 61.5,79C 59.1457,79.8471 56.8123,80.6805 54.5,81.5C 56.1475,79.6736 58.1475,78.3403 60.5,77.5 Z"/></g>
<g><path style="opacity:1" fill="#86b72b" d="M 133.5,83.5 C 140.915,86.5982 142.415,91.5982 138,98.5C 136.306,101.358 134.139,103.691 131.5,105.5C 126.105,108.015 120.771,108.015 115.5,105.5C 114.439,102.967 115.272,100.967 118,99.5C 120.909,102.394 124.409,103.227 128.5,102C 134.939,99.5951 138.105,95.0951 138,88.5C 136.293,86.9625 134.793,85.2959 133.5,83.5 Z"/></g>
<g><path style="opacity:1" fill="#85b629" d="M 82.5,108.5 C 80.329,110.5 77.9957,112.334 75.5,114C 73.1902,114.497 70.8568,114.663 68.5,114.5C 64.9975,110.833 63.1641,106.5 63,101.5C 64.5605,104.783 66.7272,107.617 69.5,110C 70.5,110.667 71.5,110.667 72.5,110C 74.6998,107.766 76.5331,105.266 78,102.5C 79.918,103.542 81.7513,104.708 83.5,106C 82.7476,106.671 82.4142,107.504 82.5,108.5 Z"/></g>
<g><path style="opacity:1" fill="#4a8282" d="M 115.5,105.5 C 120.771,108.015 126.105,108.015 131.5,105.5C 131.167,106.167 130.833,106.833 130.5,107.5C 125.299,110.063 120.132,110.063 115,107.5C 114.308,106.563 114.475,105.897 115.5,105.5 Z"/></g>
<g><path style="opacity:1" fill="#94cdd0" d="M 133.5,70.5 C 134.387,74.9535 134.387,79.2868 133.5,83.5C 134.793,85.2959 136.293,86.9625 138,88.5C 138.105,95.0951 134.939,99.5951 128.5,102C 124.409,103.227 120.909,102.394 118,99.5C 115.272,100.967 114.439,102.967 115.5,105.5C 114.475,105.897 114.308,106.563 115,107.5C 120.132,110.063 125.299,110.063 130.5,107.5C 130.995,109.482 131.495,111.482 132,113.5C 134.384,115.311 136.051,117.645 137,120.5C 137.249,119.376 137.749,118.376 138.5,117.5C 139.711,118.274 139.711,119.107 138.5,120C 139.308,120.308 139.975,120.808 140.5,121.5C 139.189,122.258 138.689,123.258 139,124.5C 139.333,124.167 139.667,123.833 140,123.5C 142.275,125.233 144.442,127.067 146.5,129C 143.512,129.217 140.845,130.217 138.5,132C 140.487,133.319 141.654,135.152 142,137.5C 143.067,138.191 144.234,138.691 145.5,139C 144.549,139.718 144.383,140.551 145,141.5C 147.842,138.458 150.676,135.458 153.5,132.5C 154.95,133.85 155.617,135.516 155.5,137.5C 153.833,137.5 152.167,137.5 150.5,137.5C 150.579,138.93 150.246,140.264 149.5,141.5C 151.437,143.04 152.604,145.04 153,147.5C 156.508,143.389 157.008,143.556 154.5,148C 156.107,149.049 156.773,150.549 156.5,152.5C 154.167,155.5 151.5,158.167 148.5,160.5C 148.063,158.926 147.063,157.759 145.5,157C 148.355,154.664 148.022,152.831 144.5,151.5C 142.117,152.462 141.117,151.462 141.5,148.5C 142.552,148.649 143.552,148.483 144.5,148C 144.13,146.39 144.797,144.89 146.5,143.5C 144.157,142.275 142.323,142.941 141,145.5C 139.355,145.307 137.521,145.14 135.5,145C 137.158,144.275 137.658,143.108 137,141.5C 135.491,140.91 133.991,140.244 132.5,139.5C 138.684,133.524 137.351,130.524 128.5,130.5C 128.5,129.5 128.5,128.5 128.5,127.5C 132.182,127.665 135.848,127.499 139.5,127C 136.768,126.587 134.101,125.92 131.5,125C 132.167,123.667 132.833,122.333 133.5,121C 132.382,119.926 131.382,118.76 130.5,117.5C 126.136,118.223 121.969,119.556 118,121.5C 116.739,121.241 115.739,120.574 115,119.5C 114.383,120.449 114.549,121.282 115.5,122C 112.937,122.126 110.604,122.293 108.5,122.5C 106.197,118.925 104.864,114.925 104.5,110.5C 105.166,103.847 105.666,97.1806 106,90.5C 106.278,89.5842 106.778,88.9175 107.5,88.5C 108.801,89.64 109.968,90.9733 111,92.5C 111.333,91.5 111.667,90.5 112,89.5C 115.961,91.2899 119.961,92.9566 124,94.5C 126.489,92.5275 126.656,90.6942 124.5,89C 125.759,88.0766 127.092,87.2432 128.5,86.5C 127.094,84.974 125.928,83.3073 125,81.5C 124.667,82.1667 124.333,82.8333 124,83.5C 123.654,81.7818 123.154,80.1151 122.5,78.5C 124.51,77.9347 126.176,76.9347 127.5,75.5C 125.953,75.793 124.286,75.293 122.5,74C 126.006,73.0012 129.672,71.8345 133.5,70.5 Z"/></g>
<g><path style="opacity:1" fill="#70bfbe" d="M 78.5,83.5 C 77.1266,83.3433 75.7932,83.51 74.5,84C 80.9811,89.1459 85.3145,95.6459 87.5,103.5C 87.5,105.167 87.5,106.833 87.5,108.5C 86.1667,108.5 84.8333,108.5 83.5,108.5C 83.1667,108.5 82.8333,108.5 82.5,108.5C 82.4142,107.504 82.7476,106.671 83.5,106C 81.7513,104.708 79.918,103.542 78,102.5C 76.5331,105.266 74.6998,107.766 72.5,110C 71.5,110.667 70.5,110.667 69.5,110C 66.7272,107.617 64.5605,104.783 63,101.5C 63.1641,106.5 64.9975,110.833 68.5,114.5C 68.6107,115.117 68.944,115.617 69.5,116C 71.8333,116.667 74.1667,116.667 76.5,116C 78.66,114.668 80.66,113.168 82.5,111.5C 83.7471,113.178 85.4138,114.511 87.5,115.5C 83.4276,115.925 79.761,117.258 76.5,119.5C 74.1979,118.178 71.8646,118.178 69.5,119.5C 66.8257,118.826 65.1591,117.159 64.5,114.5C 62.6769,115.491 61.1769,116.824 60,118.5C 59,118.167 58,117.833 57,117.5C 56.3333,119.5 55.6667,121.5 55,123.5C 54.3457,122.304 53.8457,122.304 53.5,123.5C 53.9767,124.478 54.6433,125.311 55.5,126C 53.1167,126.065 52.45,126.898 53.5,128.5C 50.7159,129.392 48.2159,129.392 46,128.5C 45.3162,127.216 45.4829,126.049 46.5,125C 42.8214,123.121 41.8214,120.288 43.5,116.5C 42.2081,114.333 41.3747,112 41,109.5C 40.3333,108.167 39.6667,108.167 39,109.5C 38.8706,106.997 37.8706,104.997 36,103.5C 35.2917,104.381 34.4584,105.047 33.5,105.5C 33.1667,104.167 32.8333,102.833 32.5,101.5C 39.0919,101.72 45.5919,102.387 52,103.5C 52.414,103.043 52.914,102.709 53.5,102.5C 54.8689,104.124 56.5355,104.624 58.5,104C 54.7016,102.105 54.5349,100.939 58,100.5C 58.6667,101.833 59.6667,102.833 61,103.5C 61.6776,101.402 61.5109,99.4024 60.5,97.5C 57.8046,94.4744 55.1379,91.4744 52.5,88.5C 52.3379,86.4727 52.5045,84.4727 53,82.5C 53.3826,81.944 53.8826,81.6107 54.5,81.5C 56.8123,80.6805 59.1457,79.8471 61.5,79C 62.7119,77.8932 62.3786,77.3932 60.5,77.5C 62.9169,75.5038 62.2502,74.5038 58.5,74.5C 58.7911,73.3509 59.6244,72.6842 61,72.5C 61.8333,72.6667 62.6667,72.8333 63.5,73C 64.6498,75.4622 65.9831,77.7955 67.5,80C 68.7441,80.4561 69.5774,79.9561 70,78.5C 73.8675,83.121 76.0341,82.4543 76.5,76.5C 78.3464,76.2222 79.6798,76.8888 80.5,78.5C 79.8256,80.1955 79.1589,81.8621 78.5,83.5 Z"/></g>
<g><path style="opacity:1" fill="#367379" d="M 82.5,108.5 C 82.8333,108.5 83.1667,108.5 83.5,108.5C 83.4431,109.609 83.1098,110.609 82.5,111.5C 80.66,113.168 78.66,114.668 76.5,116C 74.1667,116.667 71.8333,116.667 69.5,116C 68.944,115.617 68.6107,115.117 68.5,114.5C 70.8568,114.663 73.1902,114.497 75.5,114C 77.9957,112.334 80.329,110.5 82.5,108.5 Z"/></g>
<g><path style="opacity:1" fill="#a1d2d7" d="M 176.5,71.5 C 183.917,99.5293 178.75,125.196 161,148.5C 159.629,150.041 158.129,151.375 156.5,152.5C 156.773,150.549 156.107,149.049 154.5,148C 157.008,143.556 156.508,143.389 153,147.5C 152.604,145.04 151.437,143.04 149.5,141.5C 150.246,140.264 150.579,138.93 150.5,137.5C 152.167,137.5 153.833,137.5 155.5,137.5C 155.617,135.516 154.95,133.85 153.5,132.5C 150.676,135.458 147.842,138.458 145,141.5C 144.383,140.551 144.549,139.718 145.5,139C 144.234,138.691 143.067,138.191 142,137.5C 141.654,135.152 140.487,133.319 138.5,132C 140.845,130.217 143.512,129.217 146.5,129C 144.442,127.067 142.275,125.233 140,123.5C 139.667,123.833 139.333,124.167 139,124.5C 138.689,123.258 139.189,122.258 140.5,121.5C 139.975,120.808 139.308,120.308 138.5,120C 139.711,119.107 139.711,118.274 138.5,117.5C 137.749,118.376 137.249,119.376 137,120.5C 136.051,117.645 134.384,115.311 132,113.5C 131.495,111.482 130.995,109.482 130.5,107.5C 130.833,106.833 131.167,106.167 131.5,105.5C 134.139,103.691 136.306,101.358 138,98.5C 142.415,91.5982 140.915,86.5982 133.5,83.5C 134.079,80.6689 135.412,78.3356 137.5,76.5C 139.048,76.1788 139.715,75.1788 139.5,73.5C 141.429,73.2308 143.095,73.7308 144.5,75C 144.043,75.414 143.709,75.914 143.5,76.5C 144.284,79.5699 145.617,82.2366 147.5,84.5C 146.222,88.4496 147.556,91.283 151.5,93C 150.328,93.4186 149.328,94.0853 148.5,95C 150.167,96 151.5,97.3333 152.5,99C 151.833,99.6667 151.167,100.333 150.5,101C 152.813,101.662 155.146,102.162 157.5,102.5C 157.34,104.199 157.506,105.866 158,107.5C 158.333,107.167 158.667,106.833 159,106.5C 159.419,107.672 160.085,108.672 161,109.5C 163.774,108.477 166.607,108.477 169.5,109.5C 169.351,108.448 169.517,107.448 170,106.5C 171.046,107.772 171.546,109.272 171.5,111C 169.759,117.2 168.259,123.366 167,129.5C 171.195,121.032 173.695,112.032 174.5,102.5C 174.334,95.4921 174.5,88.4921 175,81.5C 175.414,81.9574 175.914,82.2907 176.5,82.5C 176.833,81.3333 177.167,80.1667 177.5,79C 177.083,76.5021 176.749,74.0021 176.5,71.5 Z"/></g>
<g><path style="opacity:1" fill="#93ccd2" d="M 174.5,102.5 C 173.695,112.032 171.195,121.032 167,129.5C 168.259,123.366 169.759,117.2 171.5,111C 171.546,109.272 171.046,107.772 170,106.5C 169.517,107.448 169.351,108.448 169.5,109.5C 166.607,108.477 163.774,108.477 161,109.5C 160.085,108.672 159.419,107.672 159,106.5C 158.667,106.833 158.333,107.167 158,107.5C 157.506,105.866 157.34,104.199 157.5,102.5C 155.146,102.162 152.813,101.662 150.5,101C 151.167,100.333 151.833,99.6667 152.5,99C 151.5,97.3333 150.167,96 148.5,95C 149.328,94.0853 150.328,93.4186 151.5,93C 147.556,91.283 146.222,88.4496 147.5,84.5C 150.684,84.6491 153.851,84.6491 157,84.5C 158.026,89.7848 158.693,95.1181 159,100.5C 159.333,95.1667 159.667,89.8333 160,84.5C 162.129,85.8627 162.629,85.5294 161.5,83.5C 164.408,82.6051 167.075,81.2718 169.5,79.5C 171.322,80.8664 172.322,82.6998 172.5,85C 173.006,91.0009 173.672,96.8343 174.5,102.5 Z"/></g>
<g><path style="opacity:1" fill="#9dd1d0" d="M 12.5,112.5 C 14.4934,115.426 16.4934,118.426 18.5,121.5C 18.1667,122.167 17.8333,122.833 17.5,123.5C 18.8333,124.5 20.1667,125.5 21.5,126.5C 27.2127,139.874 35.8794,150.874 47.5,159.5C 48.2945,161.495 48.9612,163.495 49.5,165.5C 29.9915,152.808 17.6582,135.141 12.5,112.5 Z"/></g>
<g><path style="opacity:1" fill="#98cdcd" d="M 87.5,103.5 C 88.8137,108.348 88.8137,113.348 87.5,118.5C 85.0546,124.113 81.0546,128.28 75.5,131C 81.2562,130.309 86.9228,128.976 92.5,127C 96.3575,126.19 100.024,126.357 103.5,127.5C 99.7789,127.521 96.4455,128.521 93.5,130.5C 85.5209,131.548 77.8542,133.715 70.5,137C 71.0944,137.464 71.7611,137.631 72.5,137.5C 71.4863,138.674 70.153,139.34 68.5,139.5C 63.0496,138.77 62.3829,136.77 66.5,133.5C 66.2907,132.914 65.9574,132.414 65.5,132C 67.1376,129.867 67.971,127.367 68,124.5C 68.6914,122.109 69.6914,122.109 71,124.5C 72.4124,122.249 74.2457,120.582 76.5,119.5C 79.761,117.258 83.4276,115.925 87.5,115.5C 85.4138,114.511 83.7471,113.178 82.5,111.5C 83.1098,110.609 83.4431,109.609 83.5,108.5C 84.8333,108.5 86.1667,108.5 87.5,108.5C 87.5,106.833 87.5,105.167 87.5,103.5 Z"/></g>
<g><path style="opacity:1" fill="#7b572c" d="M 93.5,130.5 C 103.689,130.317 113.689,131.484 123.5,134C 125.421,134.36 127.088,135.194 128.5,136.5C 127.754,137.736 127.421,139.07 127.5,140.5C 126.5,140.5 125.5,140.5 124.5,140.5C 121.246,138.255 117.58,136.755 113.5,136C 99.6051,132.233 85.9385,132.733 72.5,137.5C 71.7611,137.631 71.0944,137.464 70.5,137C 77.8542,133.715 85.5209,131.548 93.5,130.5 Z"/></g>
<g><path style="opacity:1" fill="#499ab0" d="M 124.5,140.5 C 123.065,141.096 121.398,141.096 119.5,140.5C 112.619,137.347 105.286,135.68 97.5,135.5C 87.3287,135.127 77.662,137.127 68.5,141.5C 67.537,141.03 67.537,140.363 68.5,139.5C 70.153,139.34 71.4863,138.674 72.5,137.5C 85.9385,132.733 99.6051,132.233 113.5,136C 117.58,136.755 121.246,138.255 124.5,140.5 Z"/></g>
<g><path style="opacity:1" fill="#88c8c7" d="M 148.5,160.5 C 136.263,170.15 122.263,176.15 106.5,178.5C 106.185,176.774 106.019,175.107 106,173.5C 107.716,174.552 108.716,173.886 109,171.5C 110.356,172.38 111.856,172.714 113.5,172.5C 113.276,164.29 108.943,160.624 100.5,161.5C 101.325,160.614 102.325,160.281 103.5,160.5C 104.291,157.583 104.291,154.75 103.5,152C 106.167,152.333 108.833,152.667 111.5,153C 109.884,152.385 108.551,151.385 107.5,150C 108.448,149.517 109.448,149.351 110.5,149.5C 110.238,148.022 110.571,146.689 111.5,145.5C 112.192,146.025 112.692,146.692 113,147.5C 113.397,143.288 115.564,140.954 119.5,140.5C 121.398,141.096 123.065,141.096 124.5,140.5C 125.5,140.5 126.5,140.5 127.5,140.5C 127.421,139.07 127.754,137.736 128.5,136.5C 127.088,135.194 125.421,134.36 123.5,134C 113.689,131.484 103.689,130.317 93.5,130.5C 96.4455,128.521 99.7789,127.521 103.5,127.5C 107.219,128.47 110.886,129.304 114.5,130C 111.183,128.52 109.183,126.02 108.5,122.5C 110.604,122.293 112.937,122.126 115.5,122C 114.549,121.282 114.383,120.449 115,119.5C 115.739,120.574 116.739,121.241 118,121.5C 121.969,119.556 126.136,118.223 130.5,117.5C 131.382,118.76 132.382,119.926 133.5,121C 132.833,122.333 132.167,123.667 131.5,125C 134.101,125.92 136.768,126.587 139.5,127C 135.848,127.499 132.182,127.665 128.5,127.5C 128.5,128.5 128.5,129.5 128.5,130.5C 137.351,130.524 138.684,133.524 132.5,139.5C 133.991,140.244 135.491,140.91 137,141.5C 137.658,143.108 137.158,144.275 135.5,145C 137.521,145.14 139.355,145.307 141,145.5C 142.323,142.941 144.157,142.275 146.5,143.5C 144.797,144.89 144.13,146.39 144.5,148C 143.552,148.483 142.552,148.649 141.5,148.5C 141.117,151.462 142.117,152.462 144.5,151.5C 148.022,152.831 148.355,154.664 145.5,157C 147.063,157.759 148.063,158.926 148.5,160.5 Z"/></g>
<g><path style="opacity:1" fill="#7cc4c0" d="M 97.5,135.5 C 105.286,135.68 112.619,137.347 119.5,140.5C 115.564,140.954 113.397,143.288 113,147.5C 112.692,146.692 112.192,146.025 111.5,145.5C 110.571,146.689 110.238,148.022 110.5,149.5C 109.448,149.351 108.448,149.517 107.5,150C 108.551,151.385 109.884,152.385 111.5,153C 108.833,152.667 106.167,152.333 103.5,152C 104.291,154.75 104.291,157.583 103.5,160.5C 102.325,160.281 101.325,160.614 100.5,161.5C 108.943,160.624 113.276,164.29 113.5,172.5C 111.856,172.714 110.356,172.38 109,171.5C 108.716,173.886 107.716,174.552 106,173.5C 106.019,175.107 106.185,176.774 106.5,178.5C 94.2917,175.688 81.9584,173.188 69.5,171C 63.8566,168.845 58.5233,166.178 53.5,163C 57.0607,163.525 60.394,164.859 63.5,167C 65.1667,167.667 66.8333,167.667 68.5,167C 66.5606,163.311 67.5606,160.977 71.5,160C 70.3147,158.647 68.9814,157.48 67.5,156.5C 68.55,154.898 67.8833,154.065 65.5,154C 66.4963,152.987 67.4963,152.154 68.5,151.5C 70.0554,151.722 71.3887,152.389 72.5,153.5C 72.5692,149.638 72.5692,145.805 72.5,142C 73.635,141.251 74.635,141.417 75.5,142.5C 75.2907,143.086 74.9574,143.586 74.5,144C 75.7287,144.781 77.062,145.281 78.5,145.5C 82.4131,145.413 86.2465,145.413 90,145.5C 93.3703,143.253 96.8703,140.92 100.5,138.5C 100.709,137.914 101.043,137.414 101.5,137C 99.9419,136.79 98.6085,136.29 97.5,135.5 Z"/></g>
<g><path style="opacity:1" fill="#8ac9c7" d="M 76.5,119.5 C 74.2457,120.582 72.4124,122.249 71,124.5C 69.6914,122.109 68.6914,122.109 68,124.5C 67.971,127.367 67.1376,129.867 65.5,132C 65.9574,132.414 66.2907,132.914 66.5,133.5C 62.3829,136.77 63.0496,138.77 68.5,139.5C 67.537,140.363 67.537,141.03 68.5,141.5C 77.662,137.127 87.3287,135.127 97.5,135.5C 98.6085,136.29 99.9419,136.79 101.5,137C 101.043,137.414 100.709,137.914 100.5,138.5C 96.8703,140.92 93.3703,143.253 90,145.5C 86.2465,145.413 82.4131,145.413 78.5,145.5C 77.062,145.281 75.7287,144.781 74.5,144C 74.9574,143.586 75.2907,143.086 75.5,142.5C 74.635,141.417 73.635,141.251 72.5,142C 72.5692,145.805 72.5692,149.638 72.5,153.5C 71.3887,152.389 70.0554,151.722 68.5,151.5C 67.4963,152.154 66.4963,152.987 65.5,154C 67.8833,154.065 68.55,154.898 67.5,156.5C 68.9814,157.48 70.3147,158.647 71.5,160C 67.5606,160.977 66.5606,163.311 68.5,167C 66.8333,167.667 65.1667,167.667 63.5,167C 60.394,164.859 57.0607,163.525 53.5,163C 58.5233,166.178 63.8566,168.845 69.5,171C 81.9584,173.188 94.2917,175.688 106.5,178.5C 98.0099,179.657 89.3433,179.824 80.5,179C 70.3661,176.71 60.6995,173.044 51.5,168C 50.6195,167.292 49.9528,166.458 49.5,165.5C 48.9612,163.495 48.2945,161.495 47.5,159.5C 35.8794,150.874 27.2127,139.874 21.5,126.5C 20.1667,125.5 18.8333,124.5 17.5,123.5C 17.8333,122.833 18.1667,122.167 18.5,121.5C 16.4934,118.426 14.4934,115.426 12.5,112.5C 12.1667,109.833 11.8333,107.167 11.5,104.5C 12.8333,104.5 14.1667,104.5 15.5,104.5C 15.1784,108.369 16.3451,111.703 19,114.5C 20.0495,113.483 21.2161,113.316 22.5,114C 22.5943,115.422 22.9276,116.922 23.5,118.5C 24.5237,119.853 25.857,120.52 27.5,120.5C 28.796,126.458 30.296,132.458 32,138.5C 32.804,139.804 33.9707,140.471 35.5,140.5C 38.3773,139.354 40.8773,139.354 43,140.5C 43.6667,139.5 43.6667,138.5 43,137.5C 36.7003,129.767 32.2003,121.101 29.5,111.5C 29.7189,110.062 30.2189,108.729 31,107.5C 31.2784,108.416 31.7784,109.082 32.5,109.5C 33.322,111.389 34.1553,113.389 35,115.5C 34.8388,112.168 34.3388,108.835 33.5,105.5C 34.4584,105.047 35.2917,104.381 36,103.5C 37.8706,104.997 38.8706,106.997 39,109.5C 39.6667,108.167 40.3333,108.167 41,109.5C 41.3747,112 42.2081,114.333 43.5,116.5C 41.8214,120.288 42.8214,123.121 46.5,125C 45.4829,126.049 45.3162,127.216 46,128.5C 48.2159,129.392 50.7159,129.392 53.5,128.5C 52.45,126.898 53.1167,126.065 55.5,126C 54.6433,125.311 53.9767,124.478 53.5,123.5C 53.8457,122.304 54.3457,122.304 55,123.5C 55.6667,121.5 56.3333,119.5 57,117.5C 58,117.833 59,118.167 60,118.5C 61.1769,116.824 62.6769,115.491 64.5,114.5C 65.1591,117.159 66.8257,118.826 69.5,119.5C 71.8646,118.178 74.1979,118.178 76.5,119.5 Z"/></g>
</svg>
